<svg viewBox="0 0 50 50" xmlns="http://www.w3.org/2000/svg">
<path d="M39.5832 8.33331H10.4165C8.7589 8.33331 7.16919 8.99179 5.99709 10.1639C4.82498 11.336 4.1665 12.9257 4.1665 14.5833V35.4166C4.1665 37.0742 4.82498 38.664 5.99709 39.8361C7.16919 41.0082 8.7589 41.6666 10.4165 41.6666H39.5832C41.2408 41.6666 42.8305 41.0082 44.0026 39.8361C45.1747 38.664 45.8332 37.0742 45.8332 35.4166V14.5833C45.8332 12.9257 45.1747 11.336 44.0026 10.1639C42.8305 8.99179 41.2408 8.33331 39.5832 8.33331V8.33331ZM10.4165 12.5H39.5832C40.1357 12.5 40.6656 12.7195 41.0563 13.1102C41.447 13.5009 41.6665 14.0308 41.6665 14.5833L24.9998 24.75L8.33317 14.5833C8.33317 14.0308 8.55266 13.5009 8.94337 13.1102C9.33407 12.7195 9.86397 12.5 10.4165 12.5V12.5ZM41.6665 35.4166C41.6665 35.9692 41.447 36.4991 41.0563 36.8898C40.6656 37.2805 40.1357 37.5 39.5832 37.5H10.4165C9.86397 37.5 9.33407 37.2805 8.94337 36.8898C8.55266 36.4991 8.33317 35.9692 8.33317 35.4166V19.3333L23.9165 28.8541C24.2332 29.037 24.5925 29.1333 24.9582 29.1333C25.3239 29.1333 25.6831 29.037 25.9998 28.8541L41.6665 19.3333V35.4166Z" /> 
</svg>
