<svg viewBox="0 0 50 50" xmlns="http://www.w3.org/2000/svg">
<path d="M18.7496 39.8876C18.7496 39.5877 18.6786 39.2915 18.5416 39.0199C18.4047 38.7484 18.2051 38.5082 17.9571 38.3163C17.7091 38.1244 17.4188 37.9855 17.1066 37.9096C16.7945 37.8336 16.4681 37.8224 16.1508 37.8767C13.2704 38.3679 9.63377 38.4418 8.66683 35.9176C7.8237 33.9627 6.42711 32.2563 4.62512 30.9792C4.49655 30.9142 4.37401 30.8394 4.25878 30.7555C4.10107 30.3689 3.82095 30.0358 3.45537 29.8001C3.0898 29.5645 2.65594 29.4373 2.21104 29.4355H2.20031C1.61855 29.4353 1.06041 29.6493 0.648037 30.0307C0.235669 30.4121 0.00266709 30.9298 3.085e-05 31.4704C-0.00857223 33.1379 1.78445 34.2063 2.51187 34.5678C3.36963 35.3687 4.059 36.3115 4.54455 37.3475C5.34602 39.4404 7.67521 42.6156 14.3706 42.2062C14.3728 42.2781 14.3749 42.346 14.376 42.4079L14.3856 42.9551C14.3856 43.4974 14.6174 44.0176 15.0301 44.4011C15.4427 44.7846 16.0023 45 16.5859 45C17.1694 45 17.7291 44.7846 18.1417 44.4011C18.5544 44.0176 18.7862 43.4974 18.7862 42.9551L18.7754 42.3041C18.7647 41.9166 18.7496 41.3554 18.7496 39.8876ZM42.22 8.95641C42.2898 8.70079 42.3586 8.41723 42.4188 8.09771C42.7746 5.81885 42.4644 3.49298 41.5206 1.36384C41.4015 1.08628 41.2185 0.836274 40.9845 0.631366C40.7505 0.426458 40.4711 0.271603 40.1658 0.177657C39.3825 -0.0679769 36.4905 -0.551249 30.9597 2.73379C26.3623 1.7283 21.5765 1.7283 16.9791 2.73379C11.4709 -0.503132 8.59378 -0.0638871 7.8181 0.16776C7.50536 0.2579 7.21829 0.411935 6.97792 0.618575C6.73755 0.825215 6.54998 1.07922 6.42895 1.36198C5.46589 3.53199 5.15904 5.9053 5.54154 8.22558C5.59527 8.48718 5.65327 8.72883 5.71344 8.95048C3.89067 11.2069 2.91978 13.9592 2.95128 16.7806C2.94534 17.4101 2.97655 18.0394 3.04475 18.6658C3.77964 28.0775 10.3805 30.9032 14.9797 31.8738C14.8841 32.1294 14.7971 32.403 14.7197 32.6925C14.5819 33.2187 14.6741 33.7742 14.9763 34.2372C15.2785 34.7002 15.7659 35.033 16.3316 35.1625C16.8974 35.292 17.4953 35.2078 17.9943 34.9282C18.4933 34.6486 18.8526 34.1965 18.9935 33.671C19.1335 32.9897 19.4924 32.3638 20.0228 31.8758C20.3435 31.6148 20.5757 31.2729 20.6911 30.8915C20.8065 30.5102 20.8003 30.1059 20.673 29.7278C20.5458 29.3497 20.303 29.0142 19.9743 28.762C19.6456 28.5097 19.2452 28.3517 18.8216 28.3072C11.2217 27.5004 7.9223 24.6228 7.42596 18.2903C7.37098 17.7888 7.34624 17.2848 7.35184 16.7806C7.31653 14.7698 8.03134 12.8096 9.37484 11.233C9.50983 11.0687 9.65362 10.9107 9.80565 10.7597C10.075 10.4796 10.2562 10.1359 10.3291 9.76634C10.4021 9.3968 10.3641 9.01572 10.2193 8.66493C10.0709 8.29588 9.95657 7.91574 9.87766 7.52863C9.69841 6.4279 9.75721 5.30499 10.0506 4.22563C11.9629 4.72759 13.7627 5.54467 15.3643 6.63796C15.6291 6.80191 15.9288 6.91101 16.243 6.95787C16.5572 7.00473 16.8786 6.98826 17.1853 6.90956C21.6323 5.78793 26.3207 5.78864 30.7673 6.91161C31.0757 6.99021 31.3988 7.00575 31.7143 6.95714C32.0297 6.90853 32.3301 6.79694 32.5947 6.63004C34.1888 5.53221 35.981 4.70783 37.887 4.19573C38.1791 5.24917 38.2445 6.34586 38.0793 7.42283C37.9996 7.84723 37.8751 8.26328 37.7076 8.66497C37.5628 9.01576 37.5248 9.39684 37.5978 9.76638C37.6708 10.1359 37.8519 10.4796 38.1212 10.7598C38.291 10.9375 38.4608 11.1292 38.6133 11.3089C39.9473 12.8588 40.65 14.7965 40.5977 16.7806C40.6017 17.3115 40.5741 17.8422 40.515 18.3702C40.0305 24.6187 36.7182 27.4984 29.0828 28.3071C28.6591 28.352 28.2586 28.5103 27.93 28.7627C27.6013 29.0152 27.3587 29.351 27.2315 29.7292C27.1044 30.1075 27.0983 30.5119 27.2139 30.8933C27.3295 31.2748 27.5619 31.6168 27.8827 31.8778C28.4298 32.3788 28.7894 33.0298 28.9087 33.7349C29.0574 34.2824 29.1257 34.846 29.1118 35.4104V40.1832C29.0903 41.5072 29.0903 42.4997 29.0903 42.955C29.0903 43.4973 29.3221 44.0174 29.7347 44.4009C30.1473 44.7844 30.707 44.9999 31.2905 44.9999C31.8741 44.9999 32.4337 44.7844 32.8464 44.4009C33.259 44.0174 33.4908 43.4973 33.4908 42.955C33.4908 42.5116 33.4908 41.5391 33.5123 40.2151V35.4104C33.53 34.5062 33.4155 33.604 33.1717 32.7285C33.102 32.4411 33.0167 32.1571 32.916 31.8778C36.2632 31.361 39.3045 29.7571 41.4985 27.3516C43.6925 24.9461 44.8969 21.8951 44.8972 18.7417C44.9697 18.0902 45.0035 17.4355 44.9983 16.7806C45.0471 13.9561 44.0681 11.1991 42.22 8.95645L42.22 8.95641Z" />
</svg>
