<svg viewBox="0 0 50 50" xmlns="http://www.w3.org/2000/svg">
  <path d="M36.1248 11.375C35.6304 11.375 35.147 11.5216 34.7359 11.7963C34.3248 12.0711 34.0044 12.4615 33.8151 12.9183C33.6259 13.3751 33.5764 13.8778 33.6729 14.3627C33.7693 14.8477 34.0074 15.2932 34.3571 15.6428C34.7067 15.9924 35.1522 16.2305 35.6371 16.327C36.1221 16.4234 36.6247 16.3739 37.0816 16.1847C37.5384 15.9955 37.9288 15.6751 38.2035 15.2639C38.4782 14.8528 38.6248 14.3695 38.6248 13.875C38.6248 13.212 38.3614 12.5761 37.8926 12.1073C37.4238 11.6384 36.7879 11.375 36.1248 11.375V11.375ZM45.7082 16.4167C45.6677 14.6881 45.3439 12.9779 44.7498 11.3542C44.2201 9.96488 43.3956 8.70685 42.3332 7.66669C41.3016 6.59882 40.0406 5.77955 38.6457 5.27085C37.0262 4.65869 35.3141 4.32754 33.5832 4.29169C31.3748 4.16669 30.6665 4.16669 24.9998 4.16669C19.3332 4.16669 18.6248 4.16669 16.4165 4.29169C14.6856 4.32754 12.9735 4.65869 11.354 5.27085C9.96166 5.7847 8.70178 6.60327 7.6665 7.66669C6.59864 8.69831 5.77937 9.95927 5.27067 11.3542C4.65851 12.9737 4.32736 14.6858 4.2915 16.4167C4.1665 18.625 4.1665 19.3334 4.1665 25C4.1665 30.6667 4.1665 31.375 4.2915 33.5834C4.32736 35.3143 4.65851 37.0264 5.27067 38.6459C5.77937 40.0408 6.59864 41.3017 7.6665 42.3334C8.70178 43.3968 9.96166 44.2153 11.354 44.7292C12.9735 45.3414 14.6856 45.6725 16.4165 45.7084C18.6248 45.8334 19.3332 45.8334 24.9998 45.8334C30.6665 45.8334 31.3748 45.8334 33.5832 45.7084C35.3141 45.6725 37.0262 45.3414 38.6457 44.7292C40.0406 44.2205 41.3016 43.4012 42.3332 42.3334C43.4003 41.2971 44.2255 40.0379 44.7498 38.6459C45.3439 37.0221 45.6677 35.3119 45.7082 33.5834C45.7082 31.375 45.8332 30.6667 45.8332 25C45.8332 19.3334 45.8332 18.625 45.7082 16.4167V16.4167ZM41.9582 33.3334C41.943 34.6558 41.7035 35.9661 41.2498 37.2084C40.9172 38.115 40.3829 38.9342 39.6873 39.6042C39.0116 40.2927 38.1941 40.8259 37.2915 41.1667C36.0492 41.6203 34.7389 41.8599 33.4165 41.875C31.3332 41.9792 30.5623 42 25.0832 42C19.604 42 18.8332 42 16.7498 41.875C15.3767 41.9007 14.0094 41.6893 12.7082 41.25C11.8452 40.8918 11.0652 40.36 10.4165 39.6875C9.72502 39.0182 9.19743 38.1983 8.87484 37.2917C8.36621 36.0316 8.08409 34.6916 8.0415 33.3334C8.0415 31.25 7.9165 30.4792 7.9165 25C7.9165 19.5209 7.9165 18.75 8.0415 16.6667C8.05084 15.3147 8.29765 13.9749 8.77067 12.7084C9.13744 11.829 9.70039 11.0451 10.4165 10.4167C11.0494 9.70037 11.8317 9.13147 12.7082 8.75002C13.9781 8.29178 15.3165 8.05227 16.6665 8.04169C18.7498 8.04169 19.5207 7.91669 24.9998 7.91669C30.479 7.91669 31.2498 7.91669 33.3332 8.04169C34.6556 8.05686 35.9659 8.29637 37.2082 8.75002C38.1549 9.10138 39.0046 9.67262 39.6873 10.4167C40.3701 11.0566 40.9035 11.839 41.2498 12.7084C41.7129 13.977 41.9525 15.3162 41.9582 16.6667C42.0623 18.75 42.0832 19.5209 42.0832 25C42.0832 30.4792 42.0623 31.25 41.9582 33.3334ZM24.9998 14.3125C22.8869 14.3166 20.8227 14.947 19.0679 16.1238C17.3131 17.3007 15.9465 18.9713 15.1407 20.9245C14.335 22.8778 14.1263 25.026 14.5411 27.0978C14.9558 29.1696 15.9753 31.072 17.4708 32.5646C18.9663 34.0572 20.8707 35.073 22.9433 35.4837C25.0159 35.8944 27.1637 35.6815 29.1154 34.872C31.0671 34.0625 32.735 32.6926 33.9084 30.9355C35.0819 29.1784 35.7082 27.1129 35.7082 25C35.7109 23.594 35.4357 22.2013 34.8983 20.902C34.3608 19.6027 33.5718 18.4225 32.5767 17.4293C31.5815 16.436 30.3997 15.6494 29.0994 15.1145C27.7991 14.5796 26.4059 14.307 24.9998 14.3125V14.3125ZM24.9998 31.9375C23.6277 31.9375 22.2864 31.5306 21.1456 30.7683C20.0047 30.006 19.1155 28.9226 18.5904 27.6549C18.0653 26.3872 17.928 24.9923 18.1956 23.6466C18.4633 22.3008 19.1241 21.0647 20.0943 20.0945C21.0645 19.1242 22.3007 18.4635 23.6464 18.1958C24.9921 17.9281 26.387 18.0655 27.6547 18.5906C28.9224 19.1157 30.0059 20.0049 30.7682 21.1458C31.5305 22.2866 31.9373 23.6279 31.9373 25C31.9373 25.9111 31.7579 26.8132 31.4093 27.6549C31.0606 28.4966 30.5496 29.2614 29.9054 29.9056C29.2612 30.5498 28.4964 31.0608 27.6547 31.4094C26.813 31.7581 25.9109 31.9375 24.9998 31.9375V31.9375Z" /> 
</svg>
