<svg viewBox="0 0 50 50" xmlns="http://www.w3.org/2000/svg">
<path d="M33.4407 15.6469C31.5592 15.6461 29.7067 16.1103 28.049 16.9982C27.8977 16.6007 27.6288 16.2586 27.278 16.0172C26.9271 15.7758 26.511 15.6467 26.0848 15.6469H17.678C17.402 15.6467 17.1286 15.7008 16.8736 15.8061C16.6185 15.9114 16.3868 16.0659 16.1916 16.2606C15.9964 16.4553 15.8416 16.6865 15.736 16.941C15.6304 17.1954 15.5762 17.4681 15.5764 17.7435V42.9033C15.5762 43.1787 15.6304 43.4514 15.736 43.7059C15.8416 43.9603 15.9964 44.1915 16.1916 44.3863C16.3868 44.581 16.6185 44.7354 16.8736 44.8407C17.1286 44.946 17.402 45.0002 17.678 45H26.0848C26.3608 45.0002 26.6342 44.946 26.8893 44.8407C27.1443 44.7354 27.3761 44.581 27.5713 44.3863C27.7665 44.1915 27.9213 43.9603 28.0268 43.7059C28.1324 43.4514 28.1866 43.1787 28.1865 42.9033V31.3718C28.1865 30.8157 28.4079 30.2824 28.8021 29.8892C29.1962 29.496 29.7308 29.2751 30.2882 29.2751C30.8456 29.2751 31.3802 29.496 31.7743 29.8892C32.1684 30.2824 32.3899 30.8157 32.3899 31.3718V42.9033C32.3897 43.1787 32.444 43.4514 32.5495 43.7059C32.6551 43.9603 32.8099 44.1915 33.0051 44.3863C33.2003 44.581 33.432 44.7354 33.6871 44.8407C33.9421 44.946 34.2155 45.0002 34.4916 45H42.8983C43.1744 45.0002 43.4477 44.946 43.7028 44.8407C43.9578 44.7354 44.1896 44.581 44.3848 44.3863C44.58 44.1915 44.7348 43.9603 44.8403 43.7059C44.9459 43.4514 45.0002 43.1787 45 42.9033V27.1784C44.9962 24.1212 43.7771 21.1903 41.6102 19.0286C39.4432 16.8668 36.5053 15.6507 33.4407 15.6469V15.6469ZM40.7966 40.8067H36.5932V31.3718C36.5932 29.7036 35.929 28.1037 34.7465 26.9241C33.5641 25.7445 31.9604 25.0818 30.2882 25.0818C28.616 25.0818 27.0122 25.7445 25.8298 26.9241C24.6474 28.1037 23.9831 29.7036 23.9831 31.3718V40.8067H19.7797V19.8402H23.9831V21.3144C23.9834 21.7488 24.1188 22.1724 24.3708 22.5268C24.6227 22.8811 24.9787 23.1487 25.3896 23.2925C25.8005 23.4363 26.2461 23.4493 26.6647 23.3297C27.0834 23.2101 27.4544 22.9638 27.7267 22.6248C28.6699 21.4298 29.9636 20.5584 31.4273 20.1324C32.8909 19.7063 34.4513 19.7469 35.8907 20.2484C37.3301 20.7499 38.5766 21.6873 39.4561 22.9297C40.3356 24.1721 40.8043 25.6575 40.7966 27.1784V40.8067ZM11.373 15.6469H2.96621C2.69017 15.6467 2.41681 15.7008 2.16175 15.8061C1.90669 15.9114 1.67494 16.0659 1.47974 16.2606C1.28455 16.4553 1.12975 16.6865 1.02419 16.941C0.918622 17.1954 0.864368 17.4681 0.864525 17.7435V42.9033C0.864365 43.1787 0.918618 43.4514 1.02418 43.7059C1.12974 43.9603 1.28455 44.1915 1.47974 44.3863C1.67493 44.581 1.90668 44.7354 2.16174 44.8407C2.4168 44.946 2.69017 45.0002 2.96621 45H11.373C11.649 45.0002 11.9224 44.946 12.1774 44.8407C12.4325 44.7354 12.6643 44.581 12.8594 44.3863C13.0546 44.1915 13.2094 43.9603 13.315 43.7059C13.4206 43.4514 13.4748 43.1787 13.4747 42.9033V17.7435C13.4748 17.4681 13.4206 17.1954 13.315 16.941C13.2094 16.6865 13.0546 16.4553 12.8594 16.2606C12.6643 16.0659 12.4325 15.9114 12.1774 15.8061C11.9224 15.7008 11.649 15.6467 11.373 15.6469V15.6469ZM9.27128 40.8067H5.0679V19.8402H9.27128V40.8067ZM7.20038 0.0121112C6.2806 -0.0428139 5.35923 0.0894719 4.49231 0.400924C3.62538 0.712377 2.83102 1.19649 2.15752 1.82381C1.48402 2.45114 0.945473 3.20858 0.574615 4.05006C0.203758 4.89153 0.00834527 5.79947 0.000261502 6.71866C-0.00782226 7.63784 0.171592 8.54906 0.527592 9.3969C0.883593 10.2447 1.40874 11.0115 2.0711 11.6505C2.73346 12.2895 3.51919 12.7875 4.3805 13.114C5.24182 13.4406 6.16072 13.589 7.08132 13.5502H7.14084C8.06306 13.6048 8.98676 13.4713 9.8555 13.1578C10.7242 12.8443 11.5198 12.3574 12.1935 11.7268C12.8672 11.0962 13.405 10.3351 13.774 9.4902C14.1429 8.64526 14.3353 7.73414 14.3393 6.81252C14.3434 5.8909 14.159 4.97814 13.7975 4.13C13.436 3.28187 12.905 2.51617 12.2368 1.8797C11.5686 1.24322 10.7774 0.749346 9.91147 0.428238C9.04551 0.10713 8.12302 -0.0344625 7.20036 0.0121112H7.20038ZM7.14086 9.3569H7.08132C6.71787 9.40092 6.34918 9.36692 5.99998 9.25715C5.65079 9.14739 5.32915 8.96441 5.05664 8.72049C4.78414 8.47656 4.56707 8.17732 4.41998 7.84285C4.2729 7.50838 4.1992 7.14639 4.20384 6.78118C4.20384 5.21686 5.37988 4.2054 7.20038 4.2054C7.56754 4.15657 7.94093 4.1868 8.2954 4.29405C8.64986 4.40131 8.97717 4.58309 9.25528 4.82716C9.53339 5.07124 9.75584 5.37193 9.90765 5.70899C10.0595 6.04606 10.1371 6.41166 10.1354 6.78118C10.1354 8.34547 8.95931 9.3569 7.14086 9.3569Z" />
</svg>
