<svg width="42" height="40" viewBox="0 0 42 40" fill="none" xmlns="http://www.w3.org/2000/svg">
<path d="M41.6534 15.0711C41.5218 14.69 41.2825 14.3553 40.9645 14.1075C40.6465 13.8598 40.2634 13.7096 39.8617 13.6752L28.0076 11.9461L22.6951 1.17523C22.5245 0.822998 22.2581 0.525942 21.9265 0.318091C21.5949 0.11024 21.2114 0 20.8201 0C20.4287 0 20.0452 0.11024 19.7136 0.318091C19.382 0.525942 19.1157 0.822998 18.9451 1.17523L13.6326 11.9252L1.7784 13.6752C1.39282 13.73 1.03032 13.8918 0.732042 14.1422C0.433763 14.3926 0.211645 14.7216 0.0908954 15.0919C-0.0196359 15.4537 -0.0295548 15.8388 0.0622032 16.2058C0.153961 16.5729 0.343932 16.908 0.611729 17.1752L9.21589 25.5086L7.13256 37.3419C7.05819 37.7325 7.09713 38.1362 7.24479 38.5053C7.39246 38.8745 7.64267 39.1937 7.9659 39.4252C8.28093 39.6505 8.65251 39.7834 9.03891 39.8092C9.42531 39.8349 9.81125 39.7525 10.1534 39.5711L20.8201 34.0086L31.4451 39.5919C31.7375 39.7569 32.0677 39.843 32.4034 39.8419C32.8447 39.8435 33.2751 39.7049 33.6326 39.4461C33.9558 39.2145 34.206 38.8953 34.3537 38.5262C34.5013 38.157 34.5403 37.7533 34.4659 37.3627L32.3826 25.5294L40.9867 17.1961C41.2875 16.9412 41.5098 16.6063 41.6278 16.2301C41.7459 15.854 41.7547 15.4521 41.6534 15.0711ZM28.8409 23.4044C28.5966 23.6407 28.4138 23.9332 28.3085 24.2564C28.2032 24.5796 28.1785 24.9237 28.2367 25.2586L29.7367 33.9877L21.9034 29.8211C21.602 29.6606 21.2657 29.5766 20.9242 29.5766C20.5827 29.5766 20.2465 29.6606 19.9451 29.8211L12.1117 33.9877L13.6117 25.2586C13.6699 24.9237 13.6453 24.5796 13.54 24.2564C13.4347 23.9332 13.2519 23.6407 13.0076 23.4044L6.75756 17.1544L15.5284 15.8836C15.8659 15.8366 16.1867 15.7076 16.4628 15.5078C16.7388 15.3081 16.9616 15.0436 17.1117 14.7377L20.8201 6.80023L24.7367 14.7586C24.8868 15.0645 25.1096 15.3289 25.3857 15.5287C25.6617 15.7284 25.9826 15.8575 26.3201 15.9044L35.0909 17.1752L28.8409 23.4044Z" fill="#F0F0F0"/>
</svg>
