<svg viewBox="0 0 75 50" fill="none" xmlns="http://www.w3.org/2000/svg">
<path d="M3.75 7.14286H71.25C72.2446 7.14286 73.1984 6.76658 73.9017 6.09681C74.6049 5.42704 75 4.51863 75 3.57143C75 2.62423 74.6049 1.71582 73.9017 1.04605C73.1984 0.376275 72.2446 0 71.25 0H3.75C2.75544 0 1.80161 0.376275 1.09835 1.04605C0.395088 1.71582 0 2.62423 0 3.57143C0 4.51863 0.395088 5.42704 1.09835 6.09681C1.80161 6.76658 2.75544 7.14286 3.75 7.14286ZM71.25 42.8571H3.75C2.75544 42.8571 1.80161 43.2334 1.09835 43.9032C0.395088 44.573 0 45.4814 0 46.4286C0 47.3758 0.395088 48.2842 1.09835 48.954C1.80161 49.6237 2.75544 50 3.75 50H71.25C72.2446 50 73.1984 49.6237 73.9017 48.954C74.6049 48.2842 75 47.3758 75 46.4286C75 45.4814 74.6049 44.573 73.9017 43.9032C73.1984 43.2334 72.2446 42.8571 71.25 42.8571ZM71.25 28.5714H3.75C2.75544 28.5714 1.80161 28.9477 1.09835 29.6175C0.395088 30.2872 0 31.1957 0 32.1429C0 33.0901 0.395088 33.9985 1.09835 34.6682C1.80161 35.338 2.75544 35.7143 3.75 35.7143H71.25C72.2446 35.7143 73.1984 35.338 73.9017 34.6682C74.6049 33.9985 75 33.0901 75 32.1429C75 31.1957 74.6049 30.2872 73.9017 29.6175C73.1984 28.9477 72.2446 28.5714 71.25 28.5714ZM71.25 14.2857H3.75C2.75544 14.2857 1.80161 14.662 1.09835 15.3318C0.395088 16.0015 0 16.9099 0 17.8571C0 18.8043 0.395088 19.7128 1.09835 20.3825C1.80161 21.0523 2.75544 21.4286 3.75 21.4286H71.25C72.2446 21.4286 73.1984 21.0523 73.9017 20.3825C74.6049 19.7128 75 18.8043 75 17.8571C75 16.9099 74.6049 16.0015 73.9017 15.3318C73.1984 14.662 72.2446 14.2857 71.25 14.2857Z" />
</svg>
