<svg viewBox="0 0 100 100" fill="none" xmlns="http://www.w3.org/2000/svg">
<path d="M98.6872 66.9051C98.2846 66.6535 97.8246 66.5086 97.3505 66.4842C96.8764 66.4597 96.404 66.5565 95.9777 66.7654L38.9944 94.6983C38.4276 94.9761 37.9716 95.4376 37.7007 96.0076C37.4297 96.5777 37.3598 97.2227 37.5023 97.8376C37.6449 98.4524 37.9915 99.0009 38.4856 99.3936C38.9797 99.7863 39.5923 100 40.2235 100H97.2067C97.9476 100 98.658 99.7057 99.1819 99.1819C99.7057 98.658 100 97.9476 100 97.2067V69.2738C100 68.8 99.8795 68.334 99.6499 67.9197C99.4202 67.5053 99.0889 67.1561 98.6872 66.9051V66.9051Z" fill="#F05454"/>
<path d="M97.2067 0H2.7933C2.05247 0 1.34199 0.294293 0.818144 0.818137C0.294299 1.34198 0 2.05247 0 2.7933V97.2067C0 97.9475 0.294299 98.658 0.818144 99.1819C1.34199 99.7057 2.05247 100 2.7933 100C3.22759 99.9983 3.6557 99.8971 4.04469 99.7039L98.4581 52.4972C98.9215 52.265 99.3111 51.9084 99.5835 51.4674C99.8558 51.0264 100 50.5183 100 50V2.7933C100 2.05247 99.7057 1.34198 99.1819 0.818137C98.658 0.294293 97.9475 0 97.2067 0ZM77.5363 27.1899L20.5531 48.9777C20.2336 49.099 19.8948 49.1615 19.5531 49.162C18.8122 49.162 18.1018 48.8677 17.5779 48.3439C17.0541 47.82 16.7598 47.1095 16.7598 46.3687V24.581C16.7598 23.8402 17.0541 23.1297 17.5779 22.6058C18.1018 22.082 18.8122 21.7877 19.5531 21.7877H76.5363C77.1893 21.7872 77.8218 22.0155 78.3239 22.433C78.8261 22.8504 79.1661 23.4305 79.285 24.0726C79.4038 24.7147 79.294 25.3781 78.9745 25.9476C78.6551 26.5171 78.1462 26.9567 77.5363 27.1899V27.1899Z" fill="#F05454"/>
</svg>
