<svg viewBox="0 0 50 50" fill="none" xmlns="http://www.w3.org/2000/svg">
<path d="M43.75 26.6458C43.4223 30.1921 42.0914 33.5717 39.913 36.3891C37.7347 39.2066 34.7989 41.3454 31.4494 42.5553C28.0998 43.7652 24.475 43.9961 20.999 43.221C17.523 42.446 14.3396 40.697 11.8213 38.1787C9.30304 35.6604 7.55405 32.477 6.77898 29.001C6.00392 25.525 6.23483 21.9002 7.44472 18.5506C8.6546 15.2011 10.7934 12.2653 13.6109 10.087C16.4283 7.90862 19.8079 6.57772 23.3542 6.25C21.278 9.05889 20.2789 12.5197 20.5386 16.0029C20.7984 19.4862 22.2997 22.7605 24.7696 25.2304C27.2395 27.7003 30.5138 29.2016 33.9971 29.4614C37.4803 29.7211 40.9411 28.7221 43.75 26.6458V26.6458Z" stroke-width="4" stroke-linecap="round" stroke-linejoin="round"/>
</svg>
